<?xml version="1.0" encoding="utf-8"?>
<!-- Generator: Adobe Illustrator 26.2.1, SVG Export Plug-In . SVG Version: 6.00 Build 0)  -->
<svg version="1.1" id="Calque_1" xmlns="http://www.w3.org/2000/svg" xmlns:xlink="http://www.w3.org/1999/xlink" x="0px" y="0px"
	 viewBox="0 0 800 800" style="enable-background:new 0 0 800 800;" xml:space="preserve">
<style type="text/css">
	.st0{fill:none;stroke:#000000;stroke-width:15.3684;stroke-miterlimit:10;}
	.st1{fill:#000000;}
</style>
<g>
	<g>
		<path class="st0" d="M287.7,346.3c0,0-0.1-18-0.1-31.9c0-78.2,55.8-152.5,55.8-180.8c0-28.4,0.2-76.4,0.2-76.4
			c0-11.1,14.1-20.3,25.1-20.3h29.7h30.5c11.1,0,25.3,13.5,25.3,24.6c0,0,0,41.6,0,69.9c0,28.4,55.1,108.5,55.1,183
			c0,13.9-0.1,74.6-0.1,74.6"/>
		<path class="st0" d="M512.4,664.7v78.2c0,11.1-9,20.1-20.1,20.1H308.7c-11.1,0-20.1-9-20.1-20.1v-78.2"/>
	</g>
	<g>
		<g>
			<g>
				<path class="st1" d="M147.7,525h-0.4c-3.6,6.1-8.4,10.5-14.3,13.2c-5.9,2.7-12.5,4.1-19.7,4.1c-8.5,0-15.9-1.7-22.2-5
					c-6.3-3.3-11.5-7.8-15.6-13.3c-4.1-5.6-7.2-12-9.3-19.2c-2.1-7.2-3.1-14.7-3.1-22.6c0-7.5,1-14.8,3.1-21.8
					c2.1-7,5.2-13.2,9.3-18.5c4.1-5.3,9.3-9.7,15.5-12.9c6.2-3.3,13.4-4.9,21.7-4.9c6.6,0,13,1.4,19,4.2c6,2.8,10.7,7,14.2,12.5h0.4
					v-56.4H177v154.8h-29.3V525z M147.3,482.9c0-4.5-0.4-8.9-1.3-13.2c-0.9-4.3-2.3-8.1-4.4-11.4c-2.1-3.3-4.8-5.9-8.2-7.9
					c-3.4-2-7.6-3-12.5-3c-5.1,0-9.3,1-12.8,3c-3.5,2-6.3,4.7-8.3,8c-2.1,3.3-3.6,7.1-4.6,11.4c-0.9,4.3-1.4,8.7-1.4,13.3
					c0,4.3,0.5,8.7,1.5,13c1,4.3,2.6,8.2,4.9,11.6c2.2,3.4,5.1,6.1,8.5,8.2c3.4,2.1,7.5,3.1,12.3,3.1c5.1,0,9.3-1,12.7-3
					c3.4-2,6.1-4.7,8.1-8.1c2-3.4,3.5-7.3,4.3-11.6C146.8,492.1,147.3,487.6,147.3,482.9z"/>
				<path class="st1" d="M182.8,427.2h29.3V448h0.4c1.4-3.5,3.4-6.7,5.9-9.7c2.5-3,5.3-5.5,8.5-7.6c3.2-2.1,6.6-3.7,10.3-4.9
					c3.7-1.2,7.4-1.7,11.2-1.7c2.3,0,4.6,0.4,6.7,1.1v28.6c-1.4-0.3-3.2-0.5-5.2-0.8c-2-0.2-4-0.3-5.9-0.3c-5.6,0-10.4,0.9-14.3,2.8
					c-3.9,1.9-7,4.4-9.4,7.7c-2.4,3.3-4.1,7.1-5.1,11.5c-1,4.4-1.5,9.1-1.5,14v50.5h-30.8V427.2z"/>
				<path class="st1" d="M290.2,409.9h-30.8v-25.4h30.8V409.9z M259.4,427.2h30.8v112.1h-30.8V427.2z"/>
				<path class="st1" d="M297.1,427.2h29.3v15.6h0.6c3.9-6.4,9-11.1,15.2-14.1c6.2-3,12.6-4.6,19.1-4.6c8.2,0,15,1.1,20.3,3.4
					c5.3,2.2,9.4,5.3,12.5,9.3c3,4,5.2,8.8,6.4,14.5c1.2,5.7,1.8,12,1.8,19v69h-30.8V476c0-9.2-1.5-16.2-4.4-20.7
					c-3-4.6-8.1-6.8-15.3-6.8c-8.4,0-14.5,2.5-18.2,7.5c-3.8,5-5.6,13.2-5.6,24.6v58.8h-30.8V427.2z"/>
				<path class="st1" d="M411.2,384.5H442v83l38.8-40.3h36.4l-42.3,41.2l47.1,70.9h-37.3l-30.8-50.1L442,500.7v38.6h-30.8V384.5z"/>
				<path class="st1" d="M588.1,553.4c-3.3,9-8,15.4-13.9,19.4c-5.9,4-14.2,6-24.7,6c-3.2,0-6.3,0.2-9.4,0c-3.1-0.2-52.2,0.3-55.4,0
					v-25.4c2.9,0.3,51.8-0.2,54.9,0.1l9.1-0.1c2.6-0.3,4.8-1.1,6.6-2.5c1.8-1.4,3.1-3.1,4-5.1c0.9-2,1.3-4.2,1.3-6.5
					c0-2.5-0.4-4.8-1.3-6.9l-39.5-105.2h33l25.4,76.8h0.4l24.5-76.8h31.9L588.1,553.4z"/>
				<path class="st1" d="M634.1,516.1l58.3-65.7h-54v-23.2h94.5v23.2l-58.3,65.7h62.4v23.2h-103V516.1z"/>
			</g>
		</g>
		<g>
			<path class="st1" d="M146.2,580.4H159v16.3h0.1c1-1.4,2.3-2.5,3.9-3.3c1.6-0.8,3.4-1.2,5.3-1.2c2.8,0,5.1,0.5,7,1.6
				c1.9,1.1,3.3,2.5,4.4,4.1c1.1,1.7,1.8,3.6,2.3,5.6c0.4,2.1,0.6,4.1,0.6,6.1c0,2.1-0.3,4.2-0.9,6.3c-0.6,2.1-1.5,4-2.6,5.7
				c-1.2,1.7-2.6,3.1-4.4,4.1c-1.8,1.1-3.8,1.6-6.2,1.6c-1.6,0-2.9-0.1-3.9-0.4c-1.1-0.3-2-0.6-2.7-1.1c-0.7-0.4-1.3-0.9-1.8-1.5
				c-0.5-0.5-0.9-1.1-1.3-1.6h-0.1v3.7h-12.3V580.4z M169.8,609.8c0-1-0.1-2-0.2-3c-0.2-1-0.4-1.9-0.9-2.6c-0.4-0.8-1-1.4-1.7-1.9
				c-0.7-0.5-1.6-0.7-2.8-0.7c-1.2,0-2.1,0.2-2.8,0.7c-0.7,0.5-1.3,1.1-1.7,1.9c-0.4,0.8-0.7,1.7-0.9,2.6c-0.2,1-0.2,2-0.2,3
				s0.1,2,0.2,3c0.2,1,0.4,1.9,0.9,2.7c0.4,0.8,1,1.4,1.7,1.9c0.7,0.5,1.6,0.7,2.8,0.7c1.2,0,2.1-0.2,2.8-0.7
				c0.7-0.5,1.3-1.1,1.7-1.9c0.4-0.8,0.7-1.7,0.9-2.7C169.7,611.8,169.8,610.8,169.8,609.8z"/>
			<path class="st1" d="M220.6,609.8c0,2.3-0.4,4.6-1.1,6.7c-0.7,2.1-1.8,4-3.3,5.6c-1.5,1.6-3.4,2.9-5.7,3.9c-2.3,1-5,1.5-8.2,1.5
				c-3.1,0-5.9-0.5-8.2-1.5c-2.3-1-4.2-2.3-5.7-3.9c-1.5-1.6-2.6-3.5-3.3-5.6c-0.7-2.1-1.1-4.4-1.1-6.7c0-2.3,0.4-4.5,1.1-6.7
				c0.7-2.1,1.8-4,3.3-5.6c1.5-1.6,3.4-2.9,5.7-3.9c2.3-1,5-1.5,8.2-1.5c3.1,0,5.9,0.5,8.2,1.5c2.3,1,4.2,2.3,5.7,3.9
				c1.5,1.6,2.6,3.5,3.3,5.6C220.2,605.2,220.6,607.5,220.6,609.8z M207.8,609.8c0-0.9-0.1-1.8-0.2-2.8c-0.1-1-0.4-1.9-0.7-2.6
				c-0.4-0.8-0.9-1.5-1.7-2c-0.7-0.5-1.7-0.8-2.9-0.8c-1.2,0-2.2,0.3-2.9,0.8c-0.7,0.5-1.3,1.2-1.7,2c-0.4,0.8-0.6,1.7-0.7,2.6
				c-0.1,1-0.2,1.9-0.2,2.8c0,0.9,0.1,1.8,0.2,2.8s0.4,1.9,0.7,2.7c0.4,0.8,0.9,1.5,1.7,2c0.7,0.5,1.7,0.8,2.9,0.8
				c1.2,0,2.2-0.3,2.9-0.8c0.7-0.5,1.3-1.2,1.7-2c0.4-0.8,0.6-1.7,0.7-2.7C207.8,611.6,207.8,610.7,207.8,609.8z"/>
			<path class="st1" d="M237.7,593h6.8v7.9h-6.8v11.7c0,1.5,0.2,2.7,0.7,3.4c0.5,0.7,1.6,1.1,3.2,1.1c0.9,0,1.9-0.1,2.9-0.2v9.7
				c-1.3,0-2.6,0.1-4,0.2c-1.4,0.1-2.8,0.2-4.2,0.2c-1.4,0-2.7-0.1-4.1-0.3c-1.4-0.2-2.6-0.6-3.7-1.3c-1.1-0.7-2-1.7-2.6-3
				c-0.7-1.3-1-3.1-1-5.4v-16h-5.7V593h5.7v-10.2h12.8V593z"/>
			<path class="st1" d="M264,593h6.8v7.9H264v11.7c0,1.5,0.2,2.7,0.7,3.4c0.5,0.7,1.6,1.1,3.2,1.1c0.9,0,1.9-0.1,2.9-0.2v9.7
				c-1.3,0-2.6,0.1-4,0.2c-1.4,0.1-2.8,0.2-4.2,0.2c-1.4,0-2.7-0.1-4.1-0.3c-1.4-0.2-2.6-0.6-3.7-1.3c-1.1-0.7-2-1.7-2.6-3
				c-0.7-1.3-1-3.1-1-5.4v-16h-5.7V593h5.7v-10.2H264V593z"/>
			<path class="st1" d="M272.6,580.4h12.8v46.1h-12.8V580.4z"/>
			<path class="st1" d="M299.6,612.7c0.2,1.9,0.8,3.5,1.9,4.7c1.1,1.2,2.6,1.8,4.7,1.8c1,0,2.1-0.2,3.1-0.6c1-0.4,1.8-1,2.3-1.8
				h11.9c-0.6,1.8-1.5,3.4-2.7,4.7c-1.2,1.3-2.5,2.4-4,3.3c-1.5,0.9-3.2,1.5-5,1.9c-1.8,0.4-3.6,0.6-5.5,0.6c-2.7,0-5.2-0.4-7.5-1.2
				c-2.3-0.8-4.3-1.9-6-3.4c-1.7-1.5-3-3.3-3.9-5.5c-0.9-2.2-1.4-4.7-1.4-7.5c0-2.5,0.4-4.7,1.3-6.9c0.8-2.1,2-4,3.6-5.6
				c1.5-1.6,3.4-2.9,5.6-3.8c2.2-0.9,4.6-1.4,7.3-1.4c3.3,0,6.2,0.5,8.6,1.4c2.4,0.9,4.4,2.2,5.9,4c1.5,1.7,2.7,3.9,3.4,6.4
				c0.7,2.5,1.1,5.4,1.1,8.7H299.6z M311.8,606c0-1.6-0.5-2.9-1.6-4c-1.1-1.1-2.4-1.6-4-1.6c-1.9,0-3.4,0.5-4.5,1.5
				c-1.1,1-1.8,2.4-2.1,4.2H311.8z"/>
			<path class="st1" d="M373.3,624c-0.5,1.5-1.1,3.1-1.7,4.8c-0.6,1.7-1.5,3.2-2.5,4.5c-0.9,1-1.8,1.8-2.8,2.4c-1,0.6-2.1,1-3.3,1.2
				c-1.2,0.3-2.4,0.4-3.6,0.5c-1.2,0-2.5,0.1-3.7,0.1h-5.8v-10.2h3c0.6,0,1.3,0,2.1,0c0.7,0,1.3-0.1,1.8-0.3
				c0.4-0.2,0.7-0.5,0.9-0.9c0.2-0.4,0.3-0.9,0.3-1.6c0-0.3-0.1-0.8-0.4-1.6c-0.2-0.8-0.5-1.7-0.9-2.8c-0.4-1.1-0.8-2.2-1.3-3.4
				c-0.5-1.2-0.9-2.4-1.3-3.5c-0.4-1.1-0.8-2.1-1.1-2.9c-0.3-0.8-0.5-1.4-0.7-1.7l-5.7-15.4h13.7l5.4,19.3h0.1l5.4-19.3h13.2
				L373.3,624z"/>
			<path class="st1" d="M418.3,609.8c0,2.3-0.4,4.6-1.1,6.7c-0.7,2.1-1.8,4-3.3,5.6c-1.5,1.6-3.4,2.9-5.7,3.9c-2.3,1-5,1.5-8.2,1.5
				c-3.1,0-5.9-0.5-8.2-1.5c-2.3-1-4.2-2.3-5.7-3.9c-1.5-1.6-2.6-3.5-3.3-5.6c-0.7-2.1-1.1-4.4-1.1-6.7c0-2.3,0.4-4.5,1.1-6.7
				c0.7-2.1,1.8-4,3.3-5.6c1.5-1.6,3.4-2.9,5.7-3.9c2.3-1,5-1.5,8.2-1.5c3.1,0,5.9,0.5,8.2,1.5c2.3,1,4.2,2.3,5.7,3.9
				c1.5,1.6,2.6,3.5,3.3,5.6C417.9,605.2,418.3,607.5,418.3,609.8z M405.5,609.8c0-0.9-0.1-1.8-0.2-2.8c-0.1-1-0.4-1.9-0.7-2.6
				c-0.4-0.8-0.9-1.5-1.7-2c-0.7-0.5-1.7-0.8-2.9-0.8c-1.2,0-2.2,0.3-2.9,0.8c-0.7,0.5-1.3,1.2-1.7,2c-0.4,0.8-0.6,1.7-0.7,2.6
				c-0.1,1-0.2,1.9-0.2,2.8c0,0.9,0.1,1.8,0.2,2.8c0.1,1,0.4,1.9,0.7,2.7c0.4,0.8,0.9,1.5,1.7,2c0.7,0.5,1.7,0.8,2.9,0.8
				c1.2,0,2.2-0.3,2.9-0.8c0.7-0.5,1.3-1.2,1.7-2c0.4-0.8,0.6-1.7,0.7-2.7C405.4,611.6,405.5,610.7,405.5,609.8z"/>
			<path class="st1" d="M454.8,626.6h-12.3v-4.3h-0.1c-1.2,1.7-2.7,3-4.4,3.8c-1.7,0.9-3.9,1.3-6.5,1.3c-1.5,0-2.9-0.2-4.3-0.7
				c-1.4-0.5-2.6-1.2-3.7-2.1c-1.1-0.9-1.9-2.1-2.6-3.5c-0.6-1.4-0.9-3.1-0.9-5v-23h12.8v17.6c0,1,0,1.9,0.1,2.7
				c0.1,0.8,0.3,1.5,0.6,2.1c0.3,0.6,0.7,1,1.3,1.4c0.6,0.3,1.3,0.5,2.3,0.5c0.6,0,1.1-0.1,1.7-0.3c0.6-0.2,1.2-0.5,1.6-1
				c0.5-0.5,0.9-1.1,1.2-2c0.3-0.8,0.5-1.9,0.5-3.3V593h12.8V626.6z"/>
			<path class="st1" d="M456.6,593h12.3v5.4h0.1c1-2,2.3-3.6,3.7-4.6c1.5-1.1,3.4-1.6,5.7-1.6c1.2,0,2.5,0.2,3.7,0.5V604
				c-0.6-0.2-1.3-0.4-2-0.6c-0.7-0.2-1.7-0.3-3-0.3c-2.5,0-4.5,0.8-5.8,2.4c-1.3,1.6-2,4.2-2,7.8v13.2h-12.8V593z"/>
			<path class="st1" d="M526.3,602.8c0-0.6-0.2-1-0.5-1.5c-0.3-0.4-0.6-0.8-1-1.1c-0.8-0.6-1.7-1-2.8-1c-0.9,0-1.8,0.2-2.6,0.5
				c-0.8,0.3-1.3,1-1.3,2.1c0,0.5,0.2,0.8,0.5,1.1c0.3,0.3,0.7,0.5,1,0.6c0.5,0.2,1.2,0.4,2,0.6c0.8,0.2,1.8,0.3,2.8,0.5
				c1,0.2,2.1,0.4,3.2,0.6c1.1,0.2,2.2,0.5,3.3,0.9c1.1,0.3,2.1,0.8,3.1,1.3c1,0.5,1.8,1.1,2.6,1.9c0.7,0.8,1.3,1.6,1.7,2.6
				c0.4,1,0.6,2.2,0.6,3.6c0,2.3-0.5,4.3-1.5,5.8c-1,1.5-2.3,2.7-3.9,3.6c-1.6,0.9-3.4,1.5-5.5,1.9c-2,0.4-4.1,0.5-6.1,0.5
				c-2,0-4-0.2-5.9-0.6c-2-0.4-3.7-1.1-5.3-2c-1.6-0.9-2.9-2.2-3.9-3.7c-1-1.5-1.5-3.3-1.6-5.5h12.2c0,1.1,0.6,2.1,1.5,3
				c0.7,0.6,1.9,1,3.4,1c0.4,0,0.9,0,1.4-0.1c0.5-0.1,1-0.2,1.4-0.4c0.4-0.2,0.8-0.5,1.1-0.8c0.3-0.3,0.5-0.8,0.5-1.2
				c0-0.5-0.1-0.9-0.3-1.2c-0.2-0.3-0.5-0.6-1-0.9c-0.5-0.3-1.2-0.5-2.2-0.7c-0.9-0.2-2.1-0.5-3.6-0.7c-4.9-0.8-8.4-2.1-10.5-3.7
				c-2.1-1.7-3.2-3.9-3.2-6.8c0-2.1,0.5-3.9,1.5-5.2c1-1.4,2.3-2.5,3.9-3.3c1.6-0.8,3.3-1.4,5.1-1.7c1.9-0.3,3.6-0.5,5.3-0.5
				c1.8,0,3.7,0.2,5.6,0.5c1.9,0.3,3.6,0.8,5.2,1.6c1.5,0.8,2.8,1.9,3.9,3.2c1,1.4,1.6,3.1,1.7,5.3H526.3z"/>
			<path class="st1" d="M558.1,593h6.8v7.9h-6.8v11.7c0,1.5,0.2,2.7,0.7,3.4c0.5,0.7,1.6,1.1,3.2,1.1c0.9,0,1.9-0.1,2.9-0.2v9.7
				c-1.3,0-2.6,0.1-4,0.2c-1.4,0.1-2.8,0.2-4.2,0.2c-1.4,0-2.7-0.1-4.1-0.3c-1.4-0.2-2.6-0.6-3.7-1.3c-1.1-0.7-2-1.7-2.6-3
				c-0.7-1.3-1-3.1-1-5.4v-16h-5.7V593h5.7v-10.2h12.8V593z"/>
			<path class="st1" d="M591.3,624c-0.5,1.5-1.1,3.1-1.7,4.8c-0.6,1.7-1.5,3.2-2.5,4.5c-0.9,1-1.8,1.8-2.8,2.4c-1,0.6-2.1,1-3.3,1.2
				c-1.2,0.3-2.4,0.4-3.6,0.5c-1.2,0-2.5,0.1-3.7,0.1h-5.8v-10.2h3c0.6,0,1.3,0,2.1,0c0.7,0,1.3-0.1,1.8-0.3
				c0.4-0.2,0.7-0.5,0.9-0.9c0.2-0.4,0.3-0.9,0.3-1.6c0-0.3-0.1-0.8-0.4-1.6c-0.2-0.8-0.5-1.7-0.9-2.8c-0.4-1.1-0.8-2.2-1.3-3.4
				c-0.5-1.2-0.9-2.4-1.3-3.5c-0.4-1.1-0.8-2.1-1.1-2.9c-0.3-0.8-0.5-1.4-0.7-1.7l-5.7-15.4h13.7l5.4,19.3h0.1l5.4-19.3h13.2
				L591.3,624z"/>
			<path class="st1" d="M603.9,580.4h12.8v46.1h-12.8V580.4z"/>
			<path class="st1" d="M630.9,612.7c0.2,1.9,0.8,3.5,1.9,4.7c1.1,1.2,2.6,1.8,4.7,1.8c1,0,2.1-0.2,3.1-0.6c1-0.4,1.8-1,2.3-1.8
				h11.9c-0.6,1.8-1.5,3.4-2.7,4.7c-1.2,1.3-2.5,2.4-4,3.3c-1.5,0.9-3.2,1.5-5,1.9c-1.8,0.4-3.6,0.6-5.5,0.6c-2.7,0-5.2-0.4-7.5-1.2
				c-2.3-0.8-4.3-1.9-6-3.4c-1.7-1.5-3-3.3-3.9-5.5c-0.9-2.2-1.4-4.7-1.4-7.5c0-2.5,0.4-4.7,1.3-6.9c0.8-2.1,2-4,3.6-5.6
				c1.5-1.6,3.4-2.9,5.6-3.8c2.2-0.9,4.6-1.4,7.3-1.4c3.3,0,6.2,0.5,8.6,1.4c2.4,0.9,4.4,2.2,5.9,4c1.5,1.7,2.7,3.9,3.4,6.4
				c0.7,2.5,1.1,5.4,1.1,8.7H630.9z M643.2,606c0-1.6-0.5-2.9-1.6-4c-1.1-1.1-2.4-1.6-4-1.6c-1.9,0-3.4,0.5-4.5,1.5
				c-1.1,1-1.8,2.4-2.1,4.2H643.2z"/>
		</g>
	</g>
</g>
</svg>
