<?xml version="1.0" standalone="no"?>
<!DOCTYPE svg PUBLIC "-//W3C//DTD SVG 20010904//EN"
 "http://www.w3.org/TR/2001/REC-SVG-20010904/DTD/svg10.dtd">
<svg version="1.0" xmlns="http://www.w3.org/2000/svg"
 width="700.000000pt" height="700.000000pt" viewBox="0 0 700.000000 700.000000"
 preserveAspectRatio="xMidYMid meet">
<metadata>
Created by potrace 1.14, written by Peter Selinger 2001-2017
</metadata>
<g transform="translate(0.000000,700.000000) scale(0.100000,-0.100000)"
fill="#000000" stroke="none">
<path d="M3095 6906 c-104 -33 -183 -97 -218 -176 -19 -43 -21 -68 -23 -470
-2 -503 11 -436 -161 -819 -140 -312 -183 -413 -235 -556 -35 -98 -83 -252
-93 -296 -2 -9 -12 -59 -23 -110 -35 -164 -44 -259 -46 -512 -1 -127 2 -201 9
-206 5 -4 39 -7 75 -7 49 1 65 5 67 16 1 8 4 125 6 260 4 192 9 269 26 355 35
188 115 451 182 602 11 23 19 44 19 48 0 3 9 24 19 48 11 23 43 96 72 162 28
66 67 153 86 194 60 130 102 236 123 315 20 71 21 104 23 491 3 470 -2 444 88
495 l44 25 325 1 c293 1 329 0 365 -17 47 -21 72 -42 105 -89 l24 -34 2 -391
c1 -250 5 -407 12 -437 19 -78 75 -221 190 -489 146 -339 262 -657 286 -783 2
-12 9 -42 15 -69 6 -26 14 -64 17 -83 3 -20 7 -46 10 -57 13 -70 17 -198 18
-570 l1 -418 75 3 75 3 0 440 c0 496 -6 581 -54 765 -70 263 -123 414 -263
745 -49 116 -95 224 -102 240 -42 92 -88 214 -106 277 -18 67 -20 103 -20 459
l0 386 -30 59 c-27 55 -65 100 -129 154 -13 11 -47 28 -76 39 -49 19 -79 20
-397 20 -251 0 -354 -4 -383 -13z"/>
<path d="M961 3140 c0 -129 0 -255 -1 -280 l0 -45 -38 41 c-145 156 -412 165
-595 22 -48 -38 -120 -139 -145 -203 -38 -96 -52 -184 -48 -300 2 -60 7 -123
10 -140 36 -156 119 -289 226 -358 75 -49 128 -66 223 -72 153 -9 274 35 352
129 l34 41 -2 -73 -3 -72 148 0 148 0 -2 773 -3 772 -152 0 -153 1 1 -236z
m-135 -425 c56 -27 92 -71 120 -145 26 -66 26 -285 1 -357 -41 -117 -113 -175
-224 -179 -76 -3 -128 15 -178 63 -135 128 -140 460 -7 586 69 66 190 80 288
32z"/>
<path d="M2094 3371 c-2 -2 -4 -59 -4 -126 l0 -121 154 -1 154 0 1 127 1 126
-150 0 c-83 0 -153 -3 -156 -5z"/>
<path d="M3606 3370 c-2 -5 0 -1518 3 -1532 0 -5 69 -8 151 -8 l150 0 0 189 0
190 55 55 c30 31 58 56 62 56 7 0 68 -93 108 -162 10 -17 176 -289 193 -316 8
-12 59 -14 319 -12 l62 0 -211 318 c-115 174 -221 333 -234 352 l-24 35 212
207 213 207 -181 1 -181 0 -100 -102 c-55 -57 -144 -148 -197 -203 l-96 -100
0 415 0 416 -151 0 c-83 0 -152 -3 -153 -6z"/>
<path d="M1874 2965 c-99 -31 -185 -100 -231 -186 l-23 -42 -1 54 c0 30 0 78
1 107 l1 52 -145 0 -146 0 -1 -32 c0 -18 -1 -270 -2 -560 l-2 -528 153 0 152
0 1 273 c1 306 1 316 23 390 41 142 153 210 327 200 l65 -4 0 140 c1 134 0
140 -20 145 -34 9 -108 5 -152 -9z"/>
<path d="M3012 2970 c-85 -18 -169 -70 -220 -135 -13 -17 -26 -30 -30 -30 -3
0 -5 33 -5 73 l1 72 -143 0 c-106 0 -144 -3 -147 -12 -2 -7 -3 -258 -3 -558
l1 -545 153 0 154 0 2 350 c2 387 7 423 66 490 64 72 229 84 297 22 61 -56 65
-90 68 -502 1 -192 3 -353 3 -357 1 -5 68 -8 150 -8 133 0 149 2 153 18 2 9 3
190 2 402 -2 411 -6 460 -55 555 -40 77 -125 143 -205 160 -53 11 -198 14
-242 5z"/>
<path d="M2090 2390 l0 -560 155 0 154 0 0 560 0 560 -154 0 -155 0 0 -560z"/>
<path d="M4705 2913 c7 -21 33 -92 58 -158 24 -66 90 -244 146 -395 57 -151
106 -284 111 -295 5 -11 19 -47 30 -80 12 -33 26 -70 32 -83 17 -34 14 -115
-7 -149 -36 -61 -51 -63 -410 -63 -253 0 -325 -3 -326 -12 -3 -66 0 -230 5
-235 12 -12 699 -6 761 7 114 24 183 76 235 180 15 30 66 159 113 285 47 127
147 394 222 595 75 201 143 382 150 403 l14 37 -159 0 -158 0 -21 -62 c-16
-53 -153 -481 -208 -652 -11 -33 -18 -44 -23 -35 -4 8 -63 179 -130 382 l-121
367 -164 0 -164 0 14 -37z"/>
<path d="M5870 2836 c0 -100 2 -114 18 -118 9 -2 128 -3 265 -3 136 1 247 -1
247 -4 0 -3 -16 -24 -36 -46 -19 -22 -47 -53 -61 -70 -47 -54 -347 -390 -353
-395 -3 -3 -32 -37 -65 -75 l-60 -70 1 -110 0 -110 514 0 515 0 0 108 c0 60
-4 111 -8 114 -5 3 -140 5 -300 5 -160 0 -295 2 -300 5 -4 3 14 28 40 57 50
53 69 75 188 211 39 44 79 89 90 100 11 12 45 50 75 85 30 35 64 73 75 84 11
12 38 42 60 67 l40 46 -1 104 c-1 57 -2 110 -3 117 -1 9 -102 12 -471 12
l-470 0 0 -114z"/>
<path d="M2306 1161 c-1 -3 -2 -193 -1 -421 1 -408 2 -416 24 -467 28 -64 87
-120 154 -145 48 -18 87 -19 1006 -19 526 1 969 3 985 6 71 14 150 76 189 149
21 40 22 52 25 472 l3 432 -70 -2 c-38 0 -73 -5 -77 -9 -5 -4 -8 -189 -9 -410
0 -437 2 -424 -57 -465 -21 -16 -107 -17 -971 -19 -1019 -3 -975 -5 -1022 47
-19 21 -20 40 -25 439 l-5 416 -73 1 c-40 0 -74 -2 -76 -5z"/>
</g>
</svg>
